PathFileType	4	(X/Y/Z)	/Users/itak/Documents/Research/Walk-IL/dataset/trc/00051_00006.trc
DataRate	CameraRate	NumFrames	NumMarkers	Units	OrigDataRate	OrigDataStartFrame	OrigNumFrames
100.000000	100.000000	4	53	mm	100.000000	395	527
Frame#	Time	RPSI			LPSI			L3			STRN			T10			C7			CLAV			RBAK			LBAK			LSHO			LUPA			LAEL			LAOL			LWTS			LWPS			LFRA			LIFD			LHPS			LHTS			RSHO			RUPA			RAEL			RAOL			RWTS			RWPS			RFRA			RIFD			RHTS			RHPS			RBHD			LFHD			RFHD			LBHD			LHIP			RHIP			RASI			LASI			LKNE			LTHI			LANK			LTIP			LTOE			LMT1			LMT5			LHEE			RKNE			RTHI			RANK			RTIP			RTOE			RMT1			RMT5			RHEE			
		X1	Y1	Z1	X2	Y2	Z2	X3	Y3	Z3	X4	Y4	Z4	X5	Y5	Z5	X6	Y6	Z6	X7	Y7	Z7	X8	Y8	Z8	X9	Y9	Z9	X10	Y10	Z10	X11	Y11	Z11	X12	Y12	Z12	X13	Y13	Z13	X14	Y14	Z14	X15	Y15	Z15	X16	Y16	Z16	X17	Y17	Z17	X18	Y18	Z18	X19	Y19	Z19	X20	Y20	Z20	X21	Y21	Z21	X22	Y22	Z22	X23	Y23	Z23	X24	Y24	Z24	X25	Y25	Z25	X26	Y26	Z26	X27	Y27	Z27	X28	Y28	Z28	X29	Y29	Z29	X30	Y30	Z30	X31	Y31	Z31	X32	Y32	Z32	X33	Y33	Z33	X34	Y34	Z34	X35	Y35	Z35	X36	Y36	Z36	X37	Y37	Z37	X38	Y38	Z38	X39	Y39	Z39	X40	Y40	Z40	X41	Y41	Z41	X42	Y42	Z42	X43	Y43	Z43	X44	Y44	Z44	X45	Y45	Z45	X46	Y46	Z46	X47	Y47	Z47	X48	Y48	Z48	X49	Y49	Z49	X50	Y50	Z50	X51	Y51	Z51	X52	Y52	Z52	X53	Y53	Z53	

396	3.95	-460.1772766113281	1033.560668945312	-140.6920471191406	-485.908447265625	1023.601684570312	-314.0115661621094	-466.6048583984375	1091.51416015625	-232.7972564697266	-199.9828186035156	1270.648559570312	-255.0616912841797	-471.7815551757812	1226.501708984375	-239.9530639648438	-394.9300842285156	1487.870239257812	-252.600341796875	-221.2853088378906	1387.309936523438	-257.3738403320312	-462.1696166992188	1355.031860351562	-171.5151519775391	-423.2699279785156	1450.901000976562	-352.5403442382812	-322.0979919433594	1447.850341796875	-428.1324157714844	-347.281005859375	1322.984619140625	-505.59765625	-333.2830810546875	1109.2451171875	-533.2617797851562	-393.0548095703125	1092.804321289062	-445.8322448730469	-240.7067108154297	867.9120483398438	-479.5311279296875	-300.96142578125	858.8002319335938	-537.1732177734375	-313.328125	1000.193176269531	-544.5228881835938	-228.5958404541016	679.245361328125	-465.8238220214844	-267.9970092773438	777.2723999023438	-535.8302612304688	-218.9361877441406	785.432373046875	-484.7548217773438	-325.01025390625	1450.385864257812	-80.62523651123047	-338.2363586425781	1384.66455078125	-15.98876667022705	-383.5836791992188	1129.798950195312	41.82183837890625	-367.7486572265625	1097.579833984375	-50.97674179077148	-228.5652618408203	883.9566650390625	17.09556007385254	-295.1256713867188	866.1349487304688	71.2230224609375	-369.1506652832031	1048.052124023438	57.42859268188477	-218.6147918701172	698.4696655273438	-1.242270112037659	-196.7388763427734	783.983154296875	20.20683479309082	-251.5216979980469	778.7061767578125	75.97943115234375	-333.0975036621094	1670.181396484375	-317.9456787109375	-168.8188018798828	1677.36328125	-178.161376953125	-155.5123748779297	1684.819458007812	-303.3585510253906	-338.4049377441406	1654.112915039062	-181.1097259521484	-389.3410949707031	958.016357421875	-411.2150268554688	-393.0365600585938	959.3446044921875	-66.80245971679688	-269.9189147949219	969.2305908203125	-97.35074615478516	-274.3749694824219	965.1179809570312	-364.0582885742188	-249.8924407958984	505.8356018066406	-344.2646484375	-304.0005187988281	637.136474609375	-388.5238952636719	-330.7976989746094	41.74739837646484	-325.8827514648438	-294.165771484375	257.5054626464844	-347.1524658203125	-127.9186248779297	43.95798492431641	-321.5581665039062	-173.3799133300781	45.97845077514648	-267.5353393554688	-226.6498413085938	35.21826171875	-366.814697265625	-382.1590270996094	44.59447479248047	-248.1239624023438	-347.0863647460938	509.6633605957031	-84.07475280761719	-321.4463195800781	781.0767211914062	-65.31533050537109	-660.149658203125	122.4434661865234	-70.13591003417969	-419.6014709472656	403.115234375	-70.35689544677734	-477.609375	40.35358810424805	-117.1692352294922	-528.4877319335938	59.89889144897461	-154.1164245605469	-550.5093383789062	67.50170135498047	-58.04660797119141	-699.6410522460938	151.009033203125	-124.9301986694336	
397	3.96	-465.7796020507812	1033.322143554688	-139.5383148193359	-491.2019348144531	1023.536437988281	-312.8700561523438	-472.0814819335938	1090.853881835938	-231.2373046875	-205.3771667480469	1270.065063476562	-253.8268127441406	-477.1985778808594	1226.006958007812	-237.9782104492188	-400.3248596191406	1487.320556640625	-251.0754852294922	-226.6271209716797	1386.750244140625	-256.2388000488281	-467.364990234375	1354.556396484375	-169.6702575683594	-428.8875122070312	1450.307495117188	-350.8905639648438	-327.9206848144531	1447.25341796875	-426.7433776855469	-353.3674926757812	1322.39306640625	-504.0784301757812	-339.5479125976562	1108.689086914062	-531.8794555664062	-398.9625549316406	1092.221069335938	-444.2118835449219	-246.57080078125	867.4287719726562	-478.5845947265625	-307.1283874511719	858.259033203125	-535.9446411132812	-319.6188049316406	999.6396484375	-543.24560546875	-234.2893218994141	678.7487182617188	-464.8739929199219	-274.0807189941406	776.7374877929688	-534.7159423828125	-224.8234100341797	784.9306640625	-483.8646545410156	-329.8550415039062	1450.006591796875	-79.25041961669922	-342.8977661132812	1384.34716796875	-14.54328346252441	-387.6458129882812	1129.483154296875	43.83164978027344	-372.0779724121094	1097.116333007812	-49.01515579223633	-231.8063812255859	884.17333984375	18.49222564697266	-298.070556640625	866.0747680664062	72.95010375976562	-372.8540954589844	1047.723022460938	59.48171997070312	-221.1875610351562	698.7747192382812	0.1664808690547943	-199.619140625	784.3045043945312	21.5137882232666	-254.1011657714844	778.8196411132812	77.49591064453125	-338.4487915039062	1669.663452148438	-316.7126770019531	-173.9464721679688	1676.731079101562	-177.197509765625	-160.8236083984375	1684.113037109375	-302.4232788085938	-343.57568359375	1653.682373046875	-179.8619842529297	-394.287841796875	958.19091796875	-409.9182434082031	-399.2398681640625	958.7838745117188	-65.28452301025391	-275.9112243652344	968.3491821289062	-95.48549652099609	-279.4853210449219	964.9841918945312	-362.1869812011719	-252.7945709228516	506.4403991699219	-343.5326843261719	-307.4903564453125	637.4541625976562	-387.7872619628906	-330.8653564453125	41.63312911987305	-326.01025390625	-295.5880737304688	257.861083984375	-346.9774475097656	-128.0819244384766	44.27889633178711	-321.6031494140625	-173.557373046875	46.26950454711914	-267.5556640625	-226.7043914794922	35.23532485961914	-366.8395080566406	-382.3217468261719	44.51335906982422	-248.3151245117188	-360.3436584472656	509.3383483886719	-82.66893768310547	-330.2294921875	780.24609375	-63.67839050292969	-666.6328735351562	116.561637878418	-70.38041687011719	-431.8598327636719	402.145263671875	-69.24586486816406	-481.8011779785156	40.75114059448242	-117.1469192504883	-533.091552734375	58.45461654663086	-154.1140747070312	-555.7453002929688	64.70766448974609	-57.97283554077148	-706.7489624023438	144.4776306152344	-125.1899490356445	
398	3.97	-471.5768127441406	1033.045043945312	-138.3567962646484	-496.5766296386719	1023.421630859375	-311.7313842773438	-477.6846313476562	1090.189819335938	-229.6903991699219	-210.8250274658203	1269.400268554688	-252.5107269287109	-482.6438598632812	1225.47265625	-236.0154571533203	-405.7340698242188	1486.732543945312	-249.5212707519531	-231.9997253417969	1386.114013671875	-255.0349426269531	-472.6197204589844	1354.05712890625	-167.8187713623047	-434.500732421875	1449.67724609375	-349.219482421875	-333.7266235351562	1446.596557617188	-425.3088073730469	-359.4276428222656	1321.739868164062	-502.5101013183594	-345.7884521484375	1108.067626953125	-530.4451904296875	-404.865966796875	1091.57421875	-442.5575866699219	-252.4006500244141	866.8970947265625	-477.5394592285156	-313.2470092773438	857.6566162109375	-534.6365356445312	-325.8742370605469	999.022216796875	-541.9014892578125	-239.9276123046875	678.2113647460938	-463.8107299804688	-280.1050720214844	776.1458740234375	-533.5103759765625	-230.6546783447266	784.3865356445312	-482.8713073730469	-334.7490539550781	1449.56591796875	-77.83099365234375	-347.6366882324219	1383.973388671875	-13.05541324615479	-391.8122863769531	1129.114624023438	45.90691757202148	-376.4980773925781	1096.577392578125	-46.99045181274414	-235.1061859130859	884.3800659179688	19.92166519165039	-301.0790710449219	865.9685668945312	74.69921875	-376.6480712890625	1047.331787109375	61.59733200073242	-223.7737426757812	699.0805053710938	1.553687930107117	-202.5459747314453	784.6214599609375	22.8237190246582	-256.7017517089844	778.9039916992188	79.01242828369141	-343.8341369628906	1669.077880859375	-315.4231262207031	-179.0928039550781	1676.055541992188	-176.1867370605469	-166.1671905517578	1683.363159179688	-301.4476013183594	-348.7635192871094	1653.188232421875	-178.5571594238281	-399.3031311035156	958.2928466796875	-408.5736389160156	-405.6283264160156	958.1680297851562	-63.74893188476562	-282.1055908203125	967.4511108398438	-93.53135681152344	-284.6727294921875	964.782470703125	-360.2261657714844	-255.7022094726562	507.0339050292969	-342.6820983886719	-311.0098876953125	637.73876953125	-386.95263671875	-330.9260559082031	41.54403686523438	-326.119384765625	-297.0084228515625	258.2154235839844	-346.7359924316406	-128.2376098632812	44.6026496887207	-321.6256103515625	-173.7165069580078	46.52504348754883	-267.5506286621094	-226.7464294433594	35.25862884521484	-366.8472290039062	-382.4757995605469	44.44126510620117	-248.486328125	-373.2059936523438	509.031982421875	-81.33300018310547	-339.0414428710938	779.4053955078125	-61.96199035644531	-672.2112426757812	110.579719543457	-70.58088684082031	-443.5723571777344	401.1490173339844	-68.21588897705078	-484.8846435546875	41.16090774536133	-117.1533279418945	-536.716064453125	57.19269180297852	-154.0802612304688	-559.9186401367188	62.20156478881836	-57.88002777099609	-713.081298828125	137.7005310058594	-125.3988571166992	
399	3.98	-477.589599609375	1032.72802734375	-137.1251831054688	-502.0474243164062	1023.255615234375	-310.5938110351562	-483.4208068847656	1089.531372070312	-228.1607971191406	-216.3271789550781	1268.6552734375	-251.1110229492188	-488.1263122558594	1224.90673828125	-234.0801086425781	-411.1551818847656	1486.111938476562	-247.9433135986328	-237.4045867919922	1385.402587890625	-253.7597808837891	-477.9375	1353.540405273438	-165.9707489013672	-440.1056213378906	1449.015380859375	-347.53515625	-339.5092468261719	1445.87890625	-423.832763671875	-365.4567565917969	1321.02294921875	-500.8941345214844	-352.0045471191406	1107.380615234375	-528.9625244140625	-410.7622680664062	1090.862548828125	-440.8704223632812	-258.2013549804688	866.3138427734375	-476.3993225097656	-319.3183288574219	856.9913940429688	-533.2504272460938	-332.0928344726562	998.34033203125	-540.4935913085938	-245.5105285644531	677.6334228515625	-462.6414184570312	-286.0741271972656	775.49755859375	-532.2166137695312	-236.4295043945312	783.8004150390625	-481.7815551757812	-339.7034606933594	1449.063720703125	-76.37074279785156	-352.4626159667969	1383.54052734375	-11.52738952636719	-396.0914611816406	1128.690185546875	48.04642868041992	-381.0170593261719	1095.963745117188	-44.90385055541992	-238.4664764404297	884.5794677734375	21.38313674926758	-304.1590576171875	865.81689453125	76.47242736816406	-380.5432739257812	1046.87744140625	63.77301025390625	-226.3737487792969	699.3898315429688	2.924788236618042	-205.5198669433594	784.937744140625	24.14127159118652	-259.3295288085938	778.9622802734375	80.53038024902344	-349.2501831054688	1668.427001953125	-314.0794982910156	-184.2591705322266	1675.340576171875	-175.1281433105469	-171.5422821044922	1682.575805664062	-300.4294738769531	-353.9676818847656	1652.630004882812	-177.1981201171875	-404.3978576660156	958.3140869140625	-407.1788940429688	-412.2112731933594	957.4932250976562	-62.20412063598633	-288.5093688964844	966.5379028320312	-91.48687744140625	-289.9547119140625	964.5094604492188	-358.1735534667969	-258.6299133300781	507.6152038574219	-341.7103576660156	-314.5699462890625	637.98876953125	-386.0132446289062	-330.983154296875	41.48017501831055	-326.2108459472656	-298.4345092773438	258.569091796875	-346.427490234375	-128.3887634277344	44.93522644042969	-321.6359558105469	-173.8568420410156	46.75706100463867	-267.526611328125	-226.7786102294922	35.28839874267578	-366.8421020507812	-382.619384765625	44.37435150146484	-248.6356048583984	-385.5780944824219	508.7229614257812	-80.08219146728516	-347.8418884277344	778.5496826171875	-60.1795768737793	-676.9755859375	104.6394119262695	-70.73912811279297	-454.6679077148438	400.1197509765625	-67.28135681152344	-487.0426330566406	41.53219985961914	-117.1902084350586	-539.5220947265625	56.11342239379883	-154.0176391601562	-563.1876220703125	60.00785446166992	-57.77489852905273	-718.695068359375	130.8474884033203	-125.5578002929688	
